<?xml version="1.0" encoding="utf-8"?>
<!-- Generator: Adobe Illustrator 27.4.1, SVG Export Plug-In . SVG Version: 6.00 Build 0)  -->
<svg version="1.1" id="Layer_1" xmlns="http://www.w3.org/2000/svg" xmlns:xlink="http://www.w3.org/1999/xlink" x="0px" y="0px"
	 viewBox="0 0 500 500" style="enable-background:new 0 0 500 500;" xml:space="preserve">
<path d="M327.71,321.6c10.45,0,20.66,0,31.24,0c0,2.82,0,5.5,0,8.84c1-0.65,1.49-0.88,1.88-1.23c10.21-9.25,22.28-11.4,35.3-8.62
	c28.84,6.17,43.89,30.87,41.01,59.6c-1.89,18.87-10.53,33.57-27.73,42.12c-13.3,6.62-27.24,8.24-41.06,1.15
	c-3.23-1.66-5.98-4.25-9.17-6.57c0,7.81,0,15.64,0,23.47c0,7.73,0,15.46,0,23.46c-10.58,0-20.88,0-31.46,0
	C327.71,416.59,327.71,369.3,327.71,321.6z M381.94,347.53c-6.48,0.02-12.35,1.73-17,6.46c-9.8,10.01-9.44,30.21,0.65,39.93
	c10.84,10.45,31.58,6.68,38.08-6.91C412.81,367.9,401.82,347.94,381.94,347.53z"/>
<path d="M274.83,416.08c0,1.42,0,2.83,0,4.25c-0.17,0.01-0.34,0.03-0.51,0.04c-0.1-0.73-0.2-1.47-0.3-2.25
	c-22.04,21.54-70.79,7.17-76.39-34.68c-2.04-15.28,0.08-29.68,9.08-42.55c12.15-17.37,35.66-25.71,54.56-19.04
	c4.81,1.7,9.1,4.89,13.7,7.43c0-14.49,0-29.7,0-45.25c10.87,0,21.27,0,31.87,0c0,47.11,0,94.19,0,141.53c-10.51,0-21.03,0-31.57,0
	c0-3.27,0-6.31,0-9.35C275.12,416.17,274.97,416.13,274.83,416.08z M276.67,370.12c0.17-6.57-4.21-15.27-11.68-19.54
	c-13.02-7.46-36.06-1.87-37.28,21.25c-0.52,9.74,2.32,18.4,11.03,23.92c8.31,5.26,17.23,5.9,25.93,1.16
	C273.67,392.01,276.25,383.4,276.67,370.12z"/>
<path d="M232.14,157.18c-1.72-3.26-3.59-6.44-5.14-9.78c-16.54-35.64-33.04-71.3-49.54-106.96c-0.52-1.12-0.97-2.26-1.61-3.77
	c1.49-0.08,2.67-0.21,3.84-0.21c10.25-0.02,20.5,0.14,30.74-0.1c3.15-0.07,4.56,1.07,5.75,3.78c10.57,23.96,21.26,47.87,31.93,71.79
	c0.6,1.34,1.24,2.65,2.19,4.68c3.1-6.79,5.93-12.94,8.71-19.12c8.8-19.54,17.56-39.1,26.4-58.61c0.43-0.96,1.53-2.3,2.33-2.31
	c12.33-0.15,24.65-0.1,37.51-0.1c-4.64,10.04-9.06,19.63-13.51,29.21c-13.79,29.73-27.59,59.47-41.4,89.19
	c-0.39,0.84-1.06,1.54-1.61,2.31l0.15,0.15c-6.08-13.3-12.16-26.61-18.58-40.65c-6.31,14.01-12.3,27.33-18.3,40.65L232.14,157.18z"
	/>
<path d="M89.21,464.09c6.1-13.23,11.82-25.82,17.74-38.32c1.18-2.48,1.21-4.42,0.06-6.97c-14.03-31.18-27.92-62.43-41.84-93.66
	c-0.55-1.23-1.01-2.49-1.7-4.18c10.23,0,20.05-0.1,29.86,0.15c1.01,0.03,2.32,1.93,2.9,3.23c8.79,19.85,17.48,39.75,26.2,59.63
	c0.49,1.12,1.04,2.21,1.87,3.96c3.31-7.62,6.38-14.63,9.42-21.65c6.09-14.08,12.22-28.15,18.21-42.28c0.96-2.26,2.09-3.18,4.68-3.13
	c9.2,0.19,18.41,0.07,28.03,0.07c-0.67,1.66-1.13,2.93-1.67,4.15c-20.19,45.23-40.42,90.45-60.54,135.72
	c-1.14,2.56-2.45,3.42-5.25,3.36C108.09,463.96,98.98,464.09,89.21,464.09z"/>
<path d="M268.71,157.18c0.07,6.61,0.2,13.22,0.2,19.83c-0.01,18.61-0.07,37.22-0.11,55.83c0,1.22,0,2.44,0,3.87
	c-12.27,0-24.21,0-36.47,0c-0.09-0.85-0.26-1.8-0.26-2.74c-0.09-24.23-0.17-48.46-0.22-72.68c0-1.37,0.19-2.73,0.29-4.1
	c0,0-0.14,0.15-0.14,0.15c12.29,0,24.58,0,36.87,0L268.71,157.18z"/>
</svg>
